# xmcd CD database file
#
# Track frame offsets:
#	150
#	35541
#	49837
#	97575
#	109496
#	132736
#	147617
#	167490
#	198950
#
# Disc length: 2931 seconds
#
# Revision: 0
# Processed by: cddbd v1.4PL0 Copyright (c) Steve Scherf et al.
# Submitted via: CDex 1.50
#
DISCID=800b7109
DTITLE=Al DiMeola - Cielo e Terra
DYEAR=1900
DGENRE=Jazz
TTITLE0=Traces Of A Tear
TTITLE1=Vertigo Shadow
TTITLE2=Cielo e Terra
TTITLE3=Enigma Of Desire
TTITLE4=Atavism Of Twilight
TTITLE5=Coral
TTITLE6=When Your Gone
TTITLE7=Etude
TTITLE8=Solace
EXTD=
EXTT0=
EXTT1=
EXTT2=
EXTT3=
EXTT4=
EXTT5=
EXTT6=
EXTT7=
EXTT8=
PLAYORDER=
